<?xml version="1.0" encoding="UTF-8" standalone="no"?>
<!DOCTYPE svg PUBLIC "-//W3C//DTD SVG 1.1//EN" "http://www.w3.org/Graphics/SVG/1.1/DTD/svg11.dtd">
<svg xmlns="http://www.w3.org/2000/svg" version="1.1" viewBox="0 0 840 599">
<g stroke-width="2.00" fill="none" stroke-linecap="butt">
<path stroke="#818181" vector-effect="non-scaling-stroke" d="
  M 370.09 293.13
  L 375.87 294.89
  C 376.40 295.05 376.97 294.75 377.12 294.22
  C 401.21 213.27 484.23 162.87 567.52 182.97
  C 607.78 192.68 639.60 214.53 662.98 248.50
  C 724.19 337.44 681.05 459.07 579.26 491.54
  C 497.87 517.51 406.97 473.16 379.69 391.37
  C 378.82 388.77 377.93 386.17 377.02 383.58
  C 376.85 383.08 376.32 382.80 375.81 382.94
  L 369.98 384.56
  C 369.44 384.71 369.13 385.28 369.29 385.82
  C 382.16 427.35 406.53 459.39 442.42 481.93
  C 474.45 502.04 514.25 510.54 551.77 505.90
  C 637.53 495.28 700.16 422.01 699.32 336.05
  C 698.56 258.66 642.97 191.39 568.20 174.56
  C 517.66 163.18 463.59 175.95 423.71 209.21
  C 397.46 231.10 379.37 258.66 369.43 291.89
  C 369.27 292.41 369.57 292.97 370.09 293.13"
/>
<path stroke="#818181" vector-effect="non-scaling-stroke" d="
  M 192.16 323.48
  C 192.75 322.51 193.61 322.03 194.74 322.02
  C 202.51 321.98 210.27 321.98 218.03 322.03
  C 220.74 322.05 222.98 322.71 222.99 325.75
  C 223.00 336.23 223.00 346.73 222.99 357.25
  C 222.99 357.80 223.44 358.25 223.99 358.25
  L 227.74 358.25
  C 228.29 358.25 228.74 357.80 228.74 357.25
  C 228.75 348.20 228.75 339.14 228.76 330.08
  C 228.76 322.07 227.64 316.34 218.49 316.30
  C 209.92 316.26 201.34 316.24 192.75 316.23
  C 192.20 316.23 191.75 315.78 191.75 315.23
  L 191.75 303.75
  C 191.75 303.20 191.30 302.75 190.75 302.75
  L 187.00 302.75
  C 186.45 302.75 186.00 303.20 186.00 303.75
  L 186.00 357.25
  C 186.00 357.80 186.45 358.25 187.00 358.25
  L 190.74 358.25
  C 191.29 358.25 191.74 357.80 191.74 357.25
  C 191.75 346.56 191.80 335.89 191.89 325.26
  C 191.90 324.36 191.99 323.77 192.16 323.48"
/>
<path stroke="#818181" vector-effect="non-scaling-stroke" d="
  M 368.00 315.20
  L 368.00 303.75
  C 368.00 303.20 367.55 302.75 367.00 302.75
  L 363.00 302.75
  C 362.45 302.75 362.00 303.20 362.00 303.75
  L 362.00 357.25
  C 362.00 357.80 362.45 358.25 363.00 358.25
  L 366.98 358.25
  C 367.53 358.25 367.98 357.80 367.98 357.25
  L 368.05 325.24
  C 368.06 323.15 369.04 322.10 370.99 322.09
  L 396.01 321.96
  C 398.16 321.95 399.23 323.06 399.23 325.31
  L 399.26 357.25
  C 399.26 357.80 399.71 358.25 400.26 358.25
  L 403.99 358.25
  C 404.54 358.25 404.99 357.80 404.99 357.25
  C 405.00 347.43 405.01 337.61 405.00 327.78
  C 404.99 321.02 402.55 316.25 395.24 316.26
  C 386.50 316.28 377.75 316.26 368.99 316.20
  C 368.44 316.19 368.00 315.75 368.00 315.20"
/>
<path stroke="#818181" vector-effect="non-scaling-stroke" d="
  M 515.9878 303.1650
  C 515.99 302.93 515.79 302.74 515.5556 302.7373
  L 510.6756 302.7628
  C 510.44 302.76 510.25 302.96 510.2479 303.1951
  L 510.2722 307.8350
  C 510.27 308.07 510.47 308.26 510.7044 308.2627
  L 515.5844 308.2372
  C 515.82 308.24 516.01 308.04 516.0121 307.8049
  L 515.9878 303.1650"
/>
<path stroke="#818181" vector-effect="non-scaling-stroke" d="
  M 128.00 311.65
  C 128.00 311.84 128.16 312.00 128.35 312.00
  L 151.40 312.00
  C 151.59 312.00 151.75 312.16 151.75 312.35
  L 151.75 357.90
  C 151.75 358.09 151.91 358.25 152.10 358.25
  L 156.65 358.25
  C 156.84 358.25 157.00 358.09 157.00 357.90
  L 157.00 312.35
  C 157.00 312.16 157.16 312.00 157.35 312.00
  L 179.90 312.00
  C 180.09 312.00 180.25 311.84 180.25 311.65
  L 180.25 306.35
  C 180.25 306.16 180.09 306.00 179.90 306.00
  L 128.35 306.00
  C 128.16 306.00 128.00 306.16 128.00 306.35
  L 128.00 311.65"
/>
<path stroke="#818181" vector-effect="non-scaling-stroke" d="
  M 311.27 338.80
  C 322.37 339.03 333.23 339.09 343.84 338.99
  C 347.99 338.95 350.82 338.54 352.34 337.76
  C 358.62 334.53 356.97 325.30 356.99 319.34
  C 357.03 311.78 355.86 306.35 347.25 306.31
  C 333.44 306.25 319.69 306.23 306.00 306.26
  C 305.45 306.26 305.00 306.71 305.00 307.26
  L 305.00 357.25
  C 305.00 357.80 305.45 358.25 306.00 358.25
  L 309.25 358.25
  C 309.80 358.25 310.25 357.80 310.25 357.25
  L 310.25 339.80
  C 310.25 339.24 310.71 338.79 311.27 338.80"
/>
<path stroke="#818181" vector-effect="non-scaling-stroke" d="
  M 276.98 326.26
  C 276.92 319.65 273.37 316.33 266.75 316.30
  C 256.29 316.25 248.77 316.23 244.18 316.24
  C 237.09 316.26 234.52 320.47 234.34 327.15
  C 233.99 339.92 234.00 347.56 234.35 350.06
  C 235.12 355.52 238.08 358.25 243.24 358.25
  C 254.16 358.26 265.08 358.25 276.00 358.24
  C 276.55 358.24 277.00 357.79 277.00 357.24
  L 277.00 353.76
  C 277.00 353.20 276.55 352.75 276.00 352.76
  C 265.72 352.77 255.44 352.75 245.17 352.72
  C 237.87 352.70 239.98 345.88 240.02 340.99
  C 240.03 340.44 240.47 340.00 241.02 340.00
  L 275.96 340.00
  C 276.51 340.00 276.95 339.56 276.96 339.01
  C 277.02 334.74 277.03 330.49 276.98 326.26"
/>
<path stroke="#818181" vector-effect="non-scaling-stroke" d="
  M 465.96 339.87
  C 466.12 339.98 466.32 340.04 466.52 340.04
  C 475.13 339.95 483.98 339.96 493.06 340.09
  C 496.39 340.13 497.11 341.36 497.01 344.57
  C 496.91 347.64 498.28 352.64 493.31 352.67
  C 479.85 352.72 471.76 352.74 469.05 352.71
  C 467.28 352.69 466.22 351.73 465.87 349.82
  C 465.78 349.34 465.36 349.00 464.88 349.00
  L 461.31 349.00
  C 460.72 349.00 460.26 349.52 460.32 350.11
  C 460.66 353.26 462.01 355.53 464.38 356.93
  C 469.13 359.73 485.87 358.25 491.94 358.23
  C 499.45 358.20 502.88 355.58 503.03 347.82
  C 503.21 338.61 501.11 334.42 491.19 334.31
  C 483.54 334.23 476.09 334.21 468.84 334.26
  C 466.99 334.27 466.05 333.36 466.02 331.51
  C 465.97 328.52 464.69 322.10 469.50 322.06
  C 477.73 321.98 485.96 321.97 494.18 322.04
  C 495.22 322.05 496.09 322.54 496.78 323.53
  C 496.95 323.77 497.01 324.07 496.93 324.36
  C 496.37 326.52 501.21 325.74 502.20 325.73
  C 502.84 325.72 503.30 325.12 503.16 324.50
  C 501.87 318.99 498.40 316.22 492.74 316.21
  C 485.24 316.20 477.75 316.21 470.26 316.25
  C 461.22 316.30 459.12 323.96 459.99 331.11
  C 460.42 334.64 462.41 337.56 465.96 339.87"
/>
<path stroke="#818181" vector-effect="non-scaling-stroke" d="
  M 516.00 316.87
  C 516.00 316.56 515.74 316.30 515.43 316.30
  L 510.83 316.30
  C 510.52 316.30 510.26 316.56 510.26 316.87
  L 510.26 357.69
  C 510.26 358.00 510.52 358.26 510.83 358.26
  L 515.43 358.26
  C 515.74 358.26 516.00 358.00 516.00 357.69
  L 516.00 316.87"
/>
<path stroke="#818181" vector-effect="non-scaling-stroke" d="
  M 524.37 349.06
  C 524.54 354.78 528.24 358.20 534.01 358.23
  C 544.66 358.28 555.32 358.27 566.01 358.21
  C 566.56 358.20 567.00 357.76 567.00 357.21
  L 567.00 353.76
  C 567.00 353.21 566.55 352.76 566.00 352.76
  C 555.41 352.75 544.83 352.72 534.26 352.67
  C 531.50 352.66 530.09 351.18 530.04 348.25
  C 529.91 340.34 529.95 332.53 530.16 324.83
  C 530.21 322.95 531.18 322.01 533.06 322.01
  L 566.00 321.99
  C 566.55 321.99 567.00 321.55 567.00 321.00
  L 567.00 317.32
  C 567.00 316.78 566.56 316.33 566.01 316.32
  C 555.74 316.17 545.46 316.18 535.19 316.36
  C 529.91 316.45 525.21 318.26 524.48 323.74
  C 524.02 327.20 523.98 335.64 524.37 349.06"
/>
<path stroke="#818181" vector-effect="non-scaling-stroke" d="
  M 578.49 338.54
  C 579.82 339.51 581.30 340.00 582.95 340.00
  C 590.82 339.99 598.92 339.98 607.25 339.96
  C 613.05 339.94 612.10 346.48 611.44 350.03
  C 611.11 351.79 610.06 352.68 608.27 352.69
  C 599.90 352.77 591.73 352.78 583.74 352.72
  C 581.91 352.71 580.80 351.73 580.43 349.80
  C 580.34 349.33 579.93 348.98 579.44 348.99
  L 575.96 349.02
  C 575.38 349.03 574.92 349.53 574.97 350.11
  C 575.64 357.59 580.82 358.24 587.53 358.25
  C 593.99 358.26 600.45 358.26 606.92 358.23
  C 615.80 358.19 618.29 352.95 617.72 344.79
  C 617.02 334.83 611.15 334.42 603.00 334.31
  C 595.87 334.21 588.88 334.20 582.05 334.28
  C 581.61 334.29 581.22 334.00 581.09 333.58
  C 580.12 330.49 578.89 322.02 584.00 322.01
  C 591.95 322.00 599.90 321.99 607.86 322.00
  C 610.10 322.00 611.26 323.06 611.88 325.05
  C 612.01 325.47 612.40 325.75 612.83 325.75
  L 616.40 325.75
  C 616.99 325.75 617.45 325.23 617.39 324.64
  C 616.82 319.37 613.82 316.59 608.41 316.32
  C 604.74 316.13 596.54 316.13 583.82 316.32
  C 578.11 316.40 574.99 320.42 574.98 325.84
  C 574.98 330.67 574.04 335.26 578.49 338.54"
/>
<path stroke="#818181" vector-effect="non-scaling-stroke" d="
  M 446.83 359.37
  C 447.06 360.90 447.12 362.45 447.00 364.01
  C 446.79 366.73 446.88 369.21 443.68 369.22
  C 435.39 369.23 427.07 369.26 418.74 369.29
  C 418.19 369.30 417.75 369.74 417.75 370.29
  L 417.75 373.99
  C 417.75 374.54 418.20 374.99 418.75 374.99
  C 426.23 374.99 433.71 375.00 441.20 375.02
  C 448.21 375.04 452.65 372.79 452.68 365.23
  C 452.75 349.42 452.76 333.59 452.73 317.75
  C 452.73 317.20 452.29 316.75 451.74 316.75
  L 448.02 316.75
  C 447.47 316.75 447.02 317.19 447.02 317.74
  L 446.96 349.50
  C 446.95 351.17 446.10 352.13 444.40 352.38
  C 436.96 353.45 428.34 352.76 420.77 352.72
  C 417.66 352.70 415.70 352.28 415.75 348.75
  C 415.80 344.22 415.79 333.89 415.71 317.74
  C 415.70 317.19 415.26 316.75 414.71 316.75
  L 411.01 316.75
  C 410.46 316.75 410.01 317.20 410.01 317.75
  C 410.00 327.41 410.00 337.08 410.00 346.77
  C 410.00 356.30 413.37 358.36 422.81 358.23
  C 430.51 358.12 438.20 358.22 445.88 358.53
  C 446.36 358.55 446.75 358.90 446.83 359.37"
/>
<path stroke="#818181" vector-effect="non-scaling-stroke" d="
  M 351.24 315.15
  C 351.24 313.42 349.83 312.01 348.10 312.01
  L 313.52 312.01
  C 311.79 312.01 310.38 313.42 310.38 315.15
  L 310.38 329.85
  C 310.38 331.58 311.79 332.99 313.52 332.99
  L 348.10 332.99
  C 349.83 332.99 351.24 331.58 351.24 329.85
  L 351.24 315.15"
/>
<path stroke="#818181" vector-effect="non-scaling-stroke" d="
  M 268.75 322.03
  L 243.00 322.03
  C 241.12 322.03 240.17 322.93 240.14 324.74
  L 240.00 333.24
  C 239.99 333.79 240.44 334.25 241.00 334.25
  L 270.29 334.25
  C 270.84 334.25 271.29 333.79 271.28 333.23
  L 271.15 324.75
  C 271.12 322.94 270.32 322.03 268.75 322.03"
/>
</g>
<path fill="#ffffff" d="
  M 0.00 0.00
  L 840.00 0.00
  L 840.00 599.00
  L 0.00 599.00
  L 0.00 0.00
  Z
  M 370.09 293.13
  L 375.87 294.89
  C 376.40 295.05 376.97 294.75 377.12 294.22
  C 401.21 213.27 484.23 162.87 567.52 182.97
  C 607.78 192.68 639.60 214.53 662.98 248.50
  C 724.19 337.44 681.05 459.07 579.26 491.54
  C 497.87 517.51 406.97 473.16 379.69 391.37
  C 378.82 388.77 377.93 386.17 377.02 383.58
  C 376.85 383.08 376.32 382.80 375.81 382.94
  L 369.98 384.56
  C 369.44 384.71 369.13 385.28 369.29 385.82
  C 382.16 427.35 406.53 459.39 442.42 481.93
  C 474.45 502.04 514.25 510.54 551.77 505.90
  C 637.53 495.28 700.16 422.01 699.32 336.05
  C 698.56 258.66 642.97 191.39 568.20 174.56
  C 517.66 163.18 463.59 175.95 423.71 209.21
  C 397.46 231.10 379.37 258.66 369.43 291.89
  C 369.27 292.41 369.57 292.97 370.09 293.13
  Z
  M 192.16 323.48
  C 192.75 322.51 193.61 322.03 194.74 322.02
  C 202.51 321.98 210.27 321.98 218.03 322.03
  C 220.74 322.05 222.98 322.71 222.99 325.75
  C 223.00 336.23 223.00 346.73 222.99 357.25
  C 222.99 357.80 223.44 358.25 223.99 358.25
  L 227.74 358.25
  C 228.29 358.25 228.74 357.80 228.74 357.25
  C 228.75 348.20 228.75 339.14 228.76 330.08
  C 228.76 322.07 227.64 316.34 218.49 316.30
  C 209.92 316.26 201.34 316.24 192.75 316.23
  C 192.20 316.23 191.75 315.78 191.75 315.23
  L 191.75 303.75
  C 191.75 303.20 191.30 302.75 190.75 302.75
  L 187.00 302.75
  C 186.45 302.75 186.00 303.20 186.00 303.75
  L 186.00 357.25
  C 186.00 357.80 186.45 358.25 187.00 358.25
  L 190.74 358.25
  C 191.29 358.25 191.74 357.80 191.74 357.25
  C 191.75 346.56 191.80 335.89 191.89 325.26
  C 191.90 324.36 191.99 323.77 192.16 323.48
  Z
  M 368.00 315.20
  L 368.00 303.75
  C 368.00 303.20 367.55 302.75 367.00 302.75
  L 363.00 302.75
  C 362.45 302.75 362.00 303.20 362.00 303.75
  L 362.00 357.25
  C 362.00 357.80 362.45 358.25 363.00 358.25
  L 366.98 358.25
  C 367.53 358.25 367.98 357.80 367.98 357.25
  L 368.05 325.24
  C 368.06 323.15 369.04 322.10 370.99 322.09
  L 396.01 321.96
  C 398.16 321.95 399.23 323.06 399.23 325.31
  L 399.26 357.25
  C 399.26 357.80 399.71 358.25 400.26 358.25
  L 403.99 358.25
  C 404.54 358.25 404.99 357.80 404.99 357.25
  C 405.00 347.43 405.01 337.61 405.00 327.78
  C 404.99 321.02 402.55 316.25 395.24 316.26
  C 386.50 316.28 377.75 316.26 368.99 316.20
  C 368.44 316.19 368.00 315.75 368.00 315.20
  Z
  M 515.9878 303.1650
  C 515.99 302.93 515.79 302.74 515.5556 302.7373
  L 510.6756 302.7628
  C 510.44 302.76 510.25 302.96 510.2479 303.1951
  L 510.2722 307.8350
  C 510.27 308.07 510.47 308.26 510.7044 308.2627
  L 515.5844 308.2372
  C 515.82 308.24 516.01 308.04 516.0121 307.8049
  L 515.9878 303.1650
  Z
  M 128.00 311.65
  C 128.00 311.84 128.16 312.00 128.35 312.00
  L 151.40 312.00
  C 151.59 312.00 151.75 312.16 151.75 312.35
  L 151.75 357.90
  C 151.75 358.09 151.91 358.25 152.10 358.25
  L 156.65 358.25
  C 156.84 358.25 157.00 358.09 157.00 357.90
  L 157.00 312.35
  C 157.00 312.16 157.16 312.00 157.35 312.00
  L 179.90 312.00
  C 180.09 312.00 180.25 311.84 180.25 311.65
  L 180.25 306.35
  C 180.25 306.16 180.09 306.00 179.90 306.00
  L 128.35 306.00
  C 128.16 306.00 128.00 306.16 128.00 306.35
  L 128.00 311.65
  Z
  M 311.27 338.80
  C 322.37 339.03 333.23 339.09 343.84 338.99
  C 347.99 338.95 350.82 338.54 352.34 337.76
  C 358.62 334.53 356.97 325.30 356.99 319.34
  C 357.03 311.78 355.86 306.35 347.25 306.31
  C 333.44 306.25 319.69 306.23 306.00 306.26
  C 305.45 306.26 305.00 306.71 305.00 307.26
  L 305.00 357.25
  C 305.00 357.80 305.45 358.25 306.00 358.25
  L 309.25 358.25
  C 309.80 358.25 310.25 357.80 310.25 357.25
  L 310.25 339.80
  C 310.25 339.24 310.71 338.79 311.27 338.80
  Z
  M 276.98 326.26
  C 276.92 319.65 273.37 316.33 266.75 316.30
  C 256.29 316.25 248.77 316.23 244.18 316.24
  C 237.09 316.26 234.52 320.47 234.34 327.15
  C 233.99 339.92 234.00 347.56 234.35 350.06
  C 235.12 355.52 238.08 358.25 243.24 358.25
  C 254.16 358.26 265.08 358.25 276.00 358.24
  C 276.55 358.24 277.00 357.79 277.00 357.24
  L 277.00 353.76
  C 277.00 353.20 276.55 352.75 276.00 352.76
  C 265.72 352.77 255.44 352.75 245.17 352.72
  C 237.87 352.70 239.98 345.88 240.02 340.99
  C 240.03 340.44 240.47 340.00 241.02 340.00
  L 275.96 340.00
  C 276.51 340.00 276.95 339.56 276.96 339.01
  C 277.02 334.74 277.03 330.49 276.98 326.26
  Z
  M 465.96 339.87
  C 466.12 339.98 466.32 340.04 466.52 340.04
  C 475.13 339.95 483.98 339.96 493.06 340.09
  C 496.39 340.13 497.11 341.36 497.01 344.57
  C 496.91 347.64 498.28 352.64 493.31 352.67
  C 479.85 352.72 471.76 352.74 469.05 352.71
  C 467.28 352.69 466.22 351.73 465.87 349.82
  C 465.78 349.34 465.36 349.00 464.88 349.00
  L 461.31 349.00
  C 460.72 349.00 460.26 349.52 460.32 350.11
  C 460.66 353.26 462.01 355.53 464.38 356.93
  C 469.13 359.73 485.87 358.25 491.94 358.23
  C 499.45 358.20 502.88 355.58 503.03 347.82
  C 503.21 338.61 501.11 334.42 491.19 334.31
  C 483.54 334.23 476.09 334.21 468.84 334.26
  C 466.99 334.27 466.05 333.36 466.02 331.51
  C 465.97 328.52 464.69 322.10 469.50 322.06
  C 477.73 321.98 485.96 321.97 494.18 322.04
  C 495.22 322.05 496.09 322.54 496.78 323.53
  C 496.95 323.77 497.01 324.07 496.93 324.36
  C 496.37 326.52 501.21 325.74 502.20 325.73
  C 502.84 325.72 503.30 325.12 503.16 324.50
  C 501.87 318.99 498.40 316.22 492.74 316.21
  C 485.24 316.20 477.75 316.21 470.26 316.25
  C 461.22 316.30 459.12 323.96 459.99 331.11
  C 460.42 334.64 462.41 337.56 465.96 339.87
  Z
  M 516.00 316.87
  C 516.00 316.56 515.74 316.30 515.43 316.30
  L 510.83 316.30
  C 510.52 316.30 510.26 316.56 510.26 316.87
  L 510.26 357.69
  C 510.26 358.00 510.52 358.26 510.83 358.26
  L 515.43 358.26
  C 515.74 358.26 516.00 358.00 516.00 357.69
  L 516.00 316.87
  Z
  M 524.37 349.06
  C 524.54 354.78 528.24 358.20 534.01 358.23
  C 544.66 358.28 555.32 358.27 566.01 358.21
  C 566.56 358.20 567.00 357.76 567.00 357.21
  L 567.00 353.76
  C 567.00 353.21 566.55 352.76 566.00 352.76
  C 555.41 352.75 544.83 352.72 534.26 352.67
  C 531.50 352.66 530.09 351.18 530.04 348.25
  C 529.91 340.34 529.95 332.53 530.16 324.83
  C 530.21 322.95 531.18 322.01 533.06 322.01
  L 566.00 321.99
  C 566.55 321.99 567.00 321.55 567.00 321.00
  L 567.00 317.32
  C 567.00 316.78 566.56 316.33 566.01 316.32
  C 555.74 316.17 545.46 316.18 535.19 316.36
  C 529.91 316.45 525.21 318.26 524.48 323.74
  C 524.02 327.20 523.98 335.64 524.37 349.06
  Z
  M 578.49 338.54
  C 579.82 339.51 581.30 340.00 582.95 340.00
  C 590.82 339.99 598.92 339.98 607.25 339.96
  C 613.05 339.94 612.10 346.48 611.44 350.03
  C 611.11 351.79 610.06 352.68 608.27 352.69
  C 599.90 352.77 591.73 352.78 583.74 352.72
  C 581.91 352.71 580.80 351.73 580.43 349.80
  C 580.34 349.33 579.93 348.98 579.44 348.99
  L 575.96 349.02
  C 575.38 349.03 574.92 349.53 574.97 350.11
  C 575.64 357.59 580.82 358.24 587.53 358.25
  C 593.99 358.26 600.45 358.26 606.92 358.23
  C 615.80 358.19 618.29 352.95 617.72 344.79
  C 617.02 334.83 611.15 334.42 603.00 334.31
  C 595.87 334.21 588.88 334.20 582.05 334.28
  C 581.61 334.29 581.22 334.00 581.09 333.58
  C 580.12 330.49 578.89 322.02 584.00 322.01
  C 591.95 322.00 599.90 321.99 607.86 322.00
  C 610.10 322.00 611.26 323.06 611.88 325.05
  C 612.01 325.47 612.40 325.75 612.83 325.75
  L 616.40 325.75
  C 616.99 325.75 617.45 325.23 617.39 324.64
  C 616.82 319.37 613.82 316.59 608.41 316.32
  C 604.74 316.13 596.54 316.13 583.82 316.32
  C 578.11 316.40 574.99 320.42 574.98 325.84
  C 574.98 330.67 574.04 335.26 578.49 338.54
  Z
  M 446.83 359.37
  C 447.06 360.90 447.12 362.45 447.00 364.01
  C 446.79 366.73 446.88 369.21 443.68 369.22
  C 435.39 369.23 427.07 369.26 418.74 369.29
  C 418.19 369.30 417.75 369.74 417.75 370.29
  L 417.75 373.99
  C 417.75 374.54 418.20 374.99 418.75 374.99
  C 426.23 374.99 433.71 375.00 441.20 375.02
  C 448.21 375.04 452.65 372.79 452.68 365.23
  C 452.75 349.42 452.76 333.59 452.73 317.75
  C 452.73 317.20 452.29 316.75 451.74 316.75
  L 448.02 316.75
  C 447.47 316.75 447.02 317.19 447.02 317.74
  L 446.96 349.50
  C 446.95 351.17 446.10 352.13 444.40 352.38
  C 436.96 353.45 428.34 352.76 420.77 352.72
  C 417.66 352.70 415.70 352.28 415.75 348.75
  C 415.80 344.22 415.79 333.89 415.71 317.74
  C 415.70 317.19 415.26 316.75 414.71 316.75
  L 411.01 316.75
  C 410.46 316.75 410.01 317.20 410.01 317.75
  C 410.00 327.41 410.00 337.08 410.00 346.77
  C 410.00 356.30 413.37 358.36 422.81 358.23
  C 430.51 358.12 438.20 358.22 445.88 358.53
  C 446.36 358.55 446.75 358.90 446.83 359.37
  Z"
/>
<path fill="#020202" d="
  M 370.09 293.13
  C 369.57 292.97 369.27 292.41 369.43 291.89
  C 379.37 258.66 397.46 231.10 423.71 209.21
  C 463.59 175.95 517.66 163.18 568.20 174.56
  C 642.97 191.39 698.56 258.66 699.32 336.05
  C 700.16 422.01 637.53 495.28 551.77 505.90
  C 514.25 510.54 474.45 502.04 442.42 481.93
  C 406.53 459.39 382.16 427.35 369.29 385.82
  C 369.13 385.28 369.44 384.71 369.98 384.56
  L 375.81 382.94
  C 376.32 382.80 376.85 383.08 377.02 383.58
  C 377.93 386.17 378.82 388.77 379.69 391.37
  C 406.97 473.16 497.87 517.51 579.26 491.54
  C 681.05 459.07 724.19 337.44 662.98 248.50
  C 639.60 214.53 607.78 192.68 567.52 182.97
  C 484.23 162.87 401.21 213.27 377.12 294.22
  C 376.97 294.75 376.40 295.05 375.87 294.89
  L 370.09 293.13
  Z"
/>
<path fill="#020202" d="
  M 192.16 323.48
  C 191.99 323.77 191.90 324.36 191.89 325.26
  C 191.80 335.89 191.75 346.56 191.74 357.25
  C 191.74 357.80 191.29 358.25 190.74 358.25
  L 187.00 358.25
  C 186.45 358.25 186.00 357.80 186.00 357.25
  L 186.00 303.75
  C 186.00 303.20 186.45 302.75 187.00 302.75
  L 190.75 302.75
  C 191.30 302.75 191.75 303.20 191.75 303.75
  L 191.75 315.23
  C 191.75 315.78 192.20 316.23 192.75 316.23
  C 201.34 316.24 209.92 316.26 218.49 316.30
  C 227.64 316.34 228.76 322.07 228.76 330.08
  C 228.75 339.14 228.75 348.20 228.74 357.25
  C 228.74 357.80 228.29 358.25 227.74 358.25
  L 223.99 358.25
  C 223.44 358.25 222.99 357.80 222.99 357.25
  C 223.00 346.73 223.00 336.23 222.99 325.75
  C 222.98 322.71 220.74 322.05 218.03 322.03
  C 210.27 321.98 202.51 321.98 194.74 322.02
  C 193.61 322.03 192.75 322.51 192.16 323.48
  Z"
/>
<path fill="#020202" d="
  M 368.99 316.20
  C 377.75 316.26 386.50 316.28 395.24 316.26
  C 402.55 316.25 404.99 321.02 405.00 327.78
  C 405.01 337.61 405.00 347.43 404.99 357.25
  C 404.99 357.80 404.54 358.25 403.99 358.25
  L 400.26 358.25
  C 399.71 358.25 399.26 357.80 399.26 357.25
  L 399.23 325.31
  C 399.23 323.06 398.16 321.95 396.01 321.96
  L 370.99 322.09
  C 369.04 322.10 368.06 323.15 368.05 325.24
  L 367.98 357.25
  C 367.98 357.80 367.53 358.25 366.98 358.25
  L 363.00 358.25
  C 362.45 358.25 362.00 357.80 362.00 357.25
  L 362.00 303.75
  C 362.00 303.20 362.45 302.75 363.00 302.75
  L 367.00 302.75
  C 367.55 302.75 368.00 303.20 368.00 303.75
  L 368.00 315.20
  C 368.00 315.75 368.44 316.19 368.99 316.20
  Z"
/>
<rect fill="#020202" x="-2.87" y="-2.75" transform="translate(513.13,305.50) rotate(-0.3)" width="5.74" height="5.50" rx="0.43"/>
<path fill="#020202" d="
  M 128.00 311.65
  L 128.00 306.35
  C 128.00 306.16 128.16 306.00 128.35 306.00
  L 179.90 306.00
  C 180.09 306.00 180.25 306.16 180.25 306.35
  L 180.25 311.65
  C 180.25 311.84 180.09 312.00 179.90 312.00
  L 157.35 312.00
  C 157.16 312.00 157.00 312.16 157.00 312.35
  L 157.00 357.90
  C 157.00 358.09 156.84 358.25 156.65 358.25
  L 152.10 358.25
  C 151.91 358.25 151.75 358.09 151.75 357.90
  L 151.75 312.35
  C 151.75 312.16 151.59 312.00 151.40 312.00
  L 128.35 312.00
  C 128.16 312.00 128.00 311.84 128.00 311.65
  Z"
/>
<path fill="#020202" d="
  M 311.27 338.80
  C 310.71 338.79 310.25 339.24 310.25 339.80
  L 310.25 357.25
  C 310.25 357.80 309.80 358.25 309.25 358.25
  L 306.00 358.25
  C 305.45 358.25 305.00 357.80 305.00 357.25
  L 305.00 307.26
  C 305.00 306.71 305.45 306.26 306.00 306.26
  C 319.69 306.23 333.44 306.25 347.25 306.31
  C 355.86 306.35 357.03 311.78 356.99 319.34
  C 356.97 325.30 358.62 334.53 352.34 337.76
  C 350.82 338.54 347.99 338.95 343.84 338.99
  C 333.23 339.09 322.37 339.03 311.27 338.80
  Z
  M 351.24 315.15
  C 351.24 313.42 349.83 312.01 348.10 312.01
  L 313.52 312.01
  C 311.79 312.01 310.38 313.42 310.38 315.15
  L 310.38 329.85
  C 310.38 331.58 311.79 332.99 313.52 332.99
  L 348.10 332.99
  C 349.83 332.99 351.24 331.58 351.24 329.85
  L 351.24 315.15
  Z"
/>
<rect fill="#ffffff" x="310.38" y="312.01" width="40.86" height="20.98" rx="3.14"/>
<path fill="#020202" d="
  M 266.75 316.30
  C 273.37 316.33 276.92 319.65 276.98 326.26
  C 277.03 330.49 277.02 334.74 276.96 339.01
  C 276.95 339.56 276.51 340.00 275.96 340.00
  L 241.02 340.00
  C 240.47 340.00 240.03 340.44 240.02 340.99
  C 239.98 345.88 237.87 352.70 245.17 352.72
  C 255.44 352.75 265.72 352.77 276.00 352.76
  C 276.55 352.75 277.00 353.20 277.00 353.76
  L 277.00 357.24
  C 277.00 357.79 276.55 358.24 276.00 358.24
  C 265.08 358.25 254.16 358.26 243.24 358.25
  C 238.08 358.25 235.12 355.52 234.35 350.06
  C 234.00 347.56 233.99 339.92 234.34 327.15
  C 234.52 320.47 237.09 316.26 244.18 316.24
  C 248.77 316.23 256.29 316.25 266.75 316.30
  Z
  M 268.75 322.03
  L 243.00 322.03
  C 241.12 322.03 240.17 322.93 240.14 324.74
  L 240.00 333.24
  C 239.99 333.79 240.44 334.25 241.00 334.25
  L 270.29 334.25
  C 270.84 334.25 271.29 333.79 271.28 333.23
  L 271.15 324.75
  C 271.12 322.94 270.32 322.03 268.75 322.03
  Z"
/>
<path fill="#020202" d="
  M 465.96 339.87
  C 462.41 337.56 460.42 334.64 459.99 331.11
  C 459.12 323.96 461.22 316.30 470.26 316.25
  C 477.75 316.21 485.24 316.20 492.74 316.21
  C 498.40 316.22 501.87 318.99 503.16 324.50
  C 503.30 325.12 502.84 325.72 502.20 325.73
  C 501.21 325.74 496.37 326.52 496.93 324.36
  C 497.01 324.07 496.95 323.77 496.78 323.53
  C 496.09 322.54 495.22 322.05 494.18 322.04
  C 485.96 321.97 477.73 321.98 469.50 322.06
  C 464.69 322.10 465.97 328.52 466.02 331.51
  C 466.05 333.36 466.99 334.27 468.84 334.26
  C 476.09 334.21 483.54 334.23 491.19 334.31
  C 501.11 334.42 503.21 338.61 503.03 347.82
  C 502.88 355.58 499.45 358.20 491.94 358.23
  C 485.87 358.25 469.13 359.73 464.38 356.93
  C 462.01 355.53 460.66 353.26 460.32 350.11
  C 460.26 349.52 460.72 349.00 461.31 349.00
  L 464.88 349.00
  C 465.36 349.00 465.78 349.34 465.87 349.82
  C 466.22 351.73 467.28 352.69 469.05 352.71
  C 471.76 352.74 479.85 352.72 493.31 352.67
  C 498.28 352.64 496.91 347.64 497.01 344.57
  C 497.11 341.36 496.39 340.13 493.06 340.09
  C 483.98 339.96 475.13 339.95 466.52 340.04
  C 466.32 340.04 466.12 339.98 465.96 339.87
  Z"
/>
<rect fill="#020202" x="510.26" y="316.30" width="5.74" height="41.96" rx="0.57"/>
<path fill="#020202" d="
  M 534.01 358.23
  C 528.24 358.20 524.54 354.78 524.37 349.06
  C 523.98 335.64 524.02 327.20 524.48 323.74
  C 525.21 318.26 529.91 316.45 535.19 316.36
  C 545.46 316.18 555.74 316.17 566.01 316.32
  C 566.56 316.33 567.00 316.78 567.00 317.32
  L 567.00 321.00
  C 567.00 321.55 566.55 321.99 566.00 321.99
  L 533.06 322.01
  C 531.18 322.01 530.21 322.95 530.16 324.83
  C 529.95 332.53 529.91 340.34 530.04 348.25
  C 530.09 351.18 531.50 352.66 534.26 352.67
  C 544.83 352.72 555.41 352.75 566.00 352.76
  C 566.55 352.76 567.00 353.21 567.00 353.76
  L 567.00 357.21
  C 567.00 357.76 566.56 358.20 566.01 358.21
  C 555.32 358.27 544.66 358.28 534.01 358.23
  Z"
/>
<path fill="#020202" d="
  M 578.49 338.54
  C 574.04 335.26 574.98 330.67 574.98 325.84
  C 574.99 320.42 578.11 316.40 583.82 316.32
  C 596.54 316.13 604.74 316.13 608.41 316.32
  C 613.82 316.59 616.82 319.37 617.39 324.64
  C 617.45 325.23 616.99 325.75 616.40 325.75
  L 612.83 325.75
  C 612.40 325.75 612.01 325.47 611.88 325.05
  C 611.26 323.06 610.10 322.00 607.86 322.00
  C 599.90 321.99 591.95 322.00 584.00 322.01
  C 578.89 322.02 580.12 330.49 581.09 333.58
  C 581.22 334.00 581.61 334.29 582.05 334.28
  C 588.88 334.20 595.87 334.21 603.00 334.31
  C 611.15 334.42 617.02 334.83 617.72 344.79
  C 618.29 352.95 615.80 358.19 606.92 358.23
  C 600.45 358.26 593.99 358.26 587.53 358.25
  C 580.82 358.24 575.64 357.59 574.97 350.11
  C 574.92 349.53 575.38 349.03 575.96 349.02
  L 579.44 348.99
  C 579.93 348.98 580.34 349.33 580.43 349.80
  C 580.80 351.73 581.91 352.71 583.74 352.72
  C 591.73 352.78 599.90 352.77 608.27 352.69
  C 610.06 352.68 611.11 351.79 611.44 350.03
  C 612.10 346.48 613.05 339.94 607.25 339.96
  C 598.92 339.98 590.82 339.99 582.95 340.00
  C 581.30 340.00 579.82 339.51 578.49 338.54
  Z"
/>
<path fill="#020202" d="
  M 445.88 358.53
  C 438.20 358.22 430.51 358.12 422.81 358.23
  C 413.37 358.36 410.00 356.30 410.00 346.77
  C 410.00 337.08 410.00 327.41 410.01 317.75
  C 410.01 317.20 410.46 316.75 411.01 316.75
  L 414.71 316.75
  C 415.26 316.75 415.70 317.19 415.71 317.74
  C 415.79 333.89 415.80 344.22 415.75 348.75
  C 415.70 352.28 417.66 352.70 420.77 352.72
  C 428.34 352.76 436.96 353.45 444.40 352.38
  C 446.10 352.13 446.95 351.17 446.96 349.50
  L 447.02 317.74
  C 447.02 317.19 447.47 316.75 448.02 316.75
  L 451.74 316.75
  C 452.29 316.75 452.73 317.20 452.73 317.75
  C 452.76 333.59 452.75 349.42 452.68 365.23
  C 452.65 372.79 448.21 375.04 441.20 375.02
  C 433.71 375.00 426.23 374.99 418.75 374.99
  C 418.20 374.99 417.75 374.54 417.75 373.99
  L 417.75 370.29
  C 417.75 369.74 418.19 369.30 418.74 369.29
  C 427.07 369.26 435.39 369.23 443.68 369.22
  C 446.88 369.21 446.79 366.73 447.00 364.01
  C 447.12 362.45 447.06 360.90 446.83 359.37
  C 446.75 358.90 446.36 358.55 445.88 358.53
  Z"
/>
<path fill="#ffffff" d="
  M 268.75 322.03
  C 270.32 322.03 271.12 322.94 271.15 324.75
  L 271.28 333.23
  C 271.29 333.79 270.84 334.25 270.29 334.25
  L 241.00 334.25
  C 240.44 334.25 239.99 333.79 240.00 333.24
  L 240.14 324.74
  C 240.17 322.93 241.12 322.03 243.00 322.03
  L 268.75 322.03
  Z"
/>
</svg>
